<svg width="66" height="66" viewBox="0 0 66 66" fill="none" xmlns="http://www.w3.org/2000/svg">
<path fill-rule="evenodd" clip-rule="evenodd" d="M29 1.00073C29 0.448448 29.4477 0.000732422 30 0.000732422H36C36.5523 0.000732422 37 0.448448 37 1.00073V3.26519C50.3696 5.04693 60.9538 15.6312 62.7355 29.0007H64.5C65.0523 29.0007 65.5 29.4484 65.5 30.0007V36.0007C65.5 36.553 65.0523 37.0007 64.5 37.0007H62.7355C60.9538 50.3703 50.3696 60.9545 37 62.7363V64.5007C37 65.053 36.5523 65.5007 36 65.5007H30C29.4477 65.5007 29 65.053 29 64.5007V62.7363C15.9654 60.9992 5.5787 50.8953 3.41495 38.0007H1C0.447715 38.0007 0 37.553 0 37.0007V31.0007C0 30.4484 0.447715 30.0007 1 30.0007H3.14819C4.52257 16.1618 15.2989 5.09113 29 3.26519V1.00073ZM29 5.28417C16.4062 7.08514 6.51459 17.2688 5.15876 30.0007H7C7.55228 30.0007 8 30.4484 8 31.0007V37.0007C8 37.553 7.55228 38.0007 7 38.0007H5.44497C7.56928 49.7874 17.0733 59.0117 29 60.7173V58.5007C29 57.9484 29.4477 57.5007 30 57.5007H36C36.5523 57.5007 37 57.9484 37 58.5007V60.7173C49.2621 58.9637 58.963 49.2628 60.7166 37.0007H58.5C57.9477 37.0007 57.5 36.553 57.5 36.0007V30.0007C57.5 29.4484 57.9477 29.0007 58.5 29.0007H60.7166C58.963 16.7386 49.2621 7.03773 37 5.28417V7.00073C37 7.55302 36.5523 8.00073 36 8.00073H30C29.4477 8.00073 29 7.55302 29 7.00073V5.28417ZM31 2.00073V6.00073H35V2.00073H31ZM59.5 31.0007V35.0007H63.5V31.0007H59.5ZM2 32.0007V36.0007H6V32.0007H2ZM31 59.5007V63.5007H35V59.5007H31Z" fill="url(#paint0_linear_117_5449)"/>
<path fill-rule="evenodd" clip-rule="evenodd" d="M29 46.0007C29 45.4484 29.4477 45.0007 30 45.0007H36C36.5523 45.0007 37 45.4484 37 46.0007C37 46.553 36.5523 47.0007 36 47.0007H30C29.4477 47.0007 29 46.553 29 46.0007Z" fill="url(#paint1_linear_117_5449)"/>
<path fill-rule="evenodd" clip-rule="evenodd" d="M33 18.0007C33.3476 18.0007 33.6703 18.1812 33.8522 18.4775L43.8522 34.7632C44.0802 35.1345 44.0415 35.6107 43.7566 35.9403L37.09 43.6546C36.9 43.8744 36.6239 44.0007 36.3333 44.0007H29.6667C29.3762 44.0007 29.1 43.8744 28.9101 43.6546L22.2434 35.9403C21.9585 35.6107 21.9198 35.1345 22.1478 34.7632L32.1478 18.4775C32.3297 18.1812 32.6524 18.0007 33 18.0007ZM24.235 35.1862L30.1242 42.0007H35.8759L41.765 35.1862L34 22.5404V32.0916H32V22.5404L24.235 35.1862Z" fill="url(#paint2_linear_117_5449)"/>
<path fill-rule="evenodd" clip-rule="evenodd" d="M37 35.0007C37 37.2099 35.2091 39.0007 33 39.0007C30.7909 39.0007 29 37.2099 29 35.0007C29 32.7916 30.7909 31.0007 33 31.0007C35.2091 31.0007 37 32.7916 37 35.0007ZM33 37.0007C34.1046 37.0007 35 36.1053 35 35.0007C35 33.8962 34.1046 33.0007 33 33.0007C31.8954 33.0007 31 33.8962 31 35.0007C31 36.1053 31.8954 37.0007 33 37.0007Z" fill="url(#paint3_linear_117_5449)"/>
<defs>
<linearGradient id="paint0_linear_117_5449" x1="-4.58465e-07" y1="9.21167" x2="65.5" y2="65.5007" gradientUnits="userSpaceOnUse">
<stop stop-color="#1E74EC"/>
<stop offset="1" stop-color="#002984"/>
</linearGradient>
<linearGradient id="paint1_linear_117_5449" x1="29" y1="45.282" x2="30.0852" y2="49.0123" gradientUnits="userSpaceOnUse">
<stop stop-color="#1E74EC"/>
<stop offset="1" stop-color="#002984"/>
</linearGradient>
<linearGradient id="paint2_linear_117_5449" x1="22" y1="21.657" x2="47.0186" y2="39.8496" gradientUnits="userSpaceOnUse">
<stop stop-color="#1E74EC"/>
<stop offset="1" stop-color="#002984"/>
</linearGradient>
<linearGradient id="paint3_linear_117_5449" x1="29" y1="32.1257" x2="37" y2="39.0007" gradientUnits="userSpaceOnUse">
<stop stop-color="#1E74EC"/>
<stop offset="1" stop-color="#002984"/>
</linearGradient>
</defs>
</svg>
