<svg width="43" height="66" viewBox="0 0 43 66" fill="none" xmlns="http://www.w3.org/2000/svg">
<path d="M12.5938 54.9009L29.7992 54.915C29.6174 55.7637 29.3412 56.7936 28.9451 57.7015C28.6539 58.3693 28.3358 58.8809 28.0154 59.206C27.7147 59.5111 27.4831 59.5872 27.2841 59.5865C24.064 59.5753 21.6393 59.5789 19.1372 59.5827H19.1307H19.1303L19.1233 59.5827C17.8461 59.5846 16.5485 59.5865 15.114 59.5865C14.9146 59.5865 14.6816 59.5092 14.3795 59.2016C14.0582 58.8744 13.7397 58.3607 13.4483 57.6916C13.0521 56.7818 12.7757 55.7506 12.5938 54.9009ZM10.9878 42.4938C11.6784 44.3376 12.08 46.275 12.1228 47.7088H11.4643C10.9903 47.7088 10.606 48.093 10.606 48.567V54.0412C10.606 54.2331 10.6692 54.4107 10.7757 54.5536C10.9655 55.6007 11.338 57.2393 11.9901 58.6331C12.6452 60.0331 13.6395 61.303 15.114 61.303C15.7025 61.303 16.2678 61.3027 16.8179 61.3022C16.8251 61.3345 16.8326 61.3668 16.8404 61.399C16.8961 61.6292 16.967 61.8556 17.0527 62.0763C17.2933 62.6959 17.6462 63.2598 18.0922 63.7355C18.5383 64.2112 19.0686 64.5895 19.6536 64.848C20.2385 65.1064 20.8661 65.2397 21.5003 65.2397C22.1346 65.2397 22.7622 65.1064 23.3471 64.848C23.932 64.5895 24.4624 64.2112 24.9084 63.7355C25.3544 63.2598 25.7074 62.6959 25.948 62.0764C26.0337 61.8556 26.1046 61.6292 26.1603 61.399C26.1683 61.366 26.176 61.3329 26.1834 61.2997C26.5384 61.3006 26.9028 61.3017 27.2781 61.303C28.7578 61.3081 29.7542 60.0332 30.4093 58.6297C31.0619 57.2319 31.433 55.5895 31.621 54.5478C31.7249 54.4059 31.7864 54.2305 31.7864 54.0412V48.567C31.7864 48.093 31.4022 47.7088 30.9282 47.7088H30.8787C30.9255 46.4086 31.3239 44.4811 32.0159 42.5997C32.7688 40.5528 33.75 38.8895 34.7018 38.1331C39.5939 34.2455 42.7349 28.2391 42.7349 21.5C42.7349 9.77251 33.2278 0.265488 21.5003 0.265488C9.77283 0.265488 0.265808 9.77251 0.265808 21.5C0.265808 28.2391 3.4068 34.2455 8.29887 38.1331C9.26347 38.8996 10.2426 40.5042 10.9878 42.4938ZM12.3225 53.183V49.4253H30.0699V53.183H12.3225ZM33.6339 36.7893C32.2996 37.8496 31.1847 39.8872 30.4049 42.0071C29.6635 44.0229 29.207 46.1633 29.1613 47.7088H13.8399C13.7978 46.0316 13.341 43.8827 12.5952 41.8917C11.8142 39.8065 10.6989 37.8478 9.36678 36.7893C4.86685 33.2133 1.9823 27.6936 1.9823 21.5C1.9823 10.7205 10.7208 1.98198 21.5003 1.98198C32.2799 1.98198 41.0184 10.7205 41.0184 21.5C41.0184 27.6936 38.1338 33.2133 33.6339 36.7893ZM18.7085 61.5902H24.2922C24.1329 61.9553 23.9167 62.2836 23.6562 62.5615C23.3641 62.8731 23.0224 63.1149 22.6534 63.2779C22.2847 63.4408 21.8932 63.5232 21.5003 63.5232C21.1075 63.5232 20.716 63.4408 20.3473 63.2779C19.9783 63.1149 19.6366 62.8731 19.3445 62.5615C19.0839 62.2836 18.8677 61.9553 18.7085 61.5902Z" fill="url(#paint0_linear_457_2704)" stroke="url(#paint1_linear_457_2704)" stroke-width="0.5"/>
<defs>
<linearGradient id="paint0_linear_457_2704" x1="0.515808" y1="9.58217" x2="56.0893" y2="40.6702" gradientUnits="userSpaceOnUse">
<stop stop-color="#1E74EC"/>
<stop offset="1" stop-color="#002984"/>
</linearGradient>
<linearGradient id="paint1_linear_457_2704" x1="0.515808" y1="9.58217" x2="56.0893" y2="40.6702" gradientUnits="userSpaceOnUse">
<stop stop-color="#1E74EC"/>
<stop offset="1" stop-color="#002984"/>
</linearGradient>
</defs>
</svg>
