<svg width="72" height="76" viewBox="0 0 72 76" fill="none" xmlns="http://www.w3.org/2000/svg">
<path fill-rule="evenodd" clip-rule="evenodd" d="M36.9821 12.7252C40.0506 12.2527 42.4002 9.60078 42.4002 6.40005C42.4002 2.86543 39.5349 6.10352e-05 36.0002 6.10352e-05C32.4656 6.10352e-05 29.6003 2.86543 29.6003 6.40005C29.6003 9.60083 31.9499 12.2528 35.0185 12.7252V17.6004C35.0185 17.6632 35.0244 17.7246 35.0357 17.7842L17.9609 26.3215C17.6283 26.4878 17.4182 26.8278 17.4182 27.1997V36.6181H12.7255C12.2531 33.5495 9.6011 31.1998 6.40032 31.1998C2.86571 31.1998 0.000335693 34.0652 0.000335693 37.5998C0.000335693 41.1344 2.86571 43.9998 6.40032 43.9998C9.60106 43.9998 12.253 41.6502 12.7255 38.5817H17.4182V47.9997C17.4182 48.359 17.6144 48.6895 17.9298 48.8616L35.04 58.1944C35.0259 58.2607 35.0185 58.3294 35.0185 58.3999V63.2749C31.9499 63.7473 29.6003 66.3993 29.6003 69.6001C29.6003 73.1347 32.4656 76.0001 36.0002 76.0001C39.5349 76.0001 42.4002 73.1347 42.4002 69.6001C42.4002 66.3993 40.0506 63.7474 36.9821 63.2749V58.3999C36.9821 58.3293 36.9747 58.2604 36.9605 58.1941L54.0701 48.8616C54.3855 48.6895 54.5817 48.359 54.5817 47.9997V38.5817H59.275C59.7475 41.6502 62.3994 43.9998 65.6002 43.9998C69.1348 43.9998 72.0002 41.1344 72.0002 37.5998C72.0002 34.0652 69.1348 31.1998 65.6002 31.1998C62.3994 31.1998 59.7474 33.5495 59.275 36.6181H54.5817V27.1997C54.5817 26.8278 54.3716 26.4878 54.039 26.3215L36.9649 17.7845C36.9762 17.7248 36.9821 17.6633 36.9821 17.6004V12.7252ZM40.4366 6.40005C40.4366 8.85018 38.4504 10.8364 36.0002 10.8364C33.5501 10.8364 31.5639 8.85018 31.5639 6.40005C31.5639 3.94992 33.5501 1.96369 36.0002 1.96369C38.4504 1.96369 40.4366 3.94992 40.4366 6.40005ZM19.3818 47.4168V37.6285C19.3821 37.619 19.3822 37.6095 19.3822 37.5999L19.382 37.5813L19.3818 37.5712V28.7883L35.0181 36.6065V55.9457L19.3818 47.4168ZM36.9818 55.9457L52.6181 47.4168V28.7883L36.9818 36.6065V55.9457ZM36 34.902L51.4045 27.1997L36 19.4974L20.5954 27.1997L36 34.902ZM6.40032 42.0362C8.85046 42.0362 10.8367 40.0499 10.8367 37.5998C10.8367 35.1497 8.85046 33.1635 6.40032 33.1635C3.95019 33.1635 1.96397 35.1497 1.96397 37.5998C1.96397 40.0499 3.95019 42.0362 6.40032 42.0362ZM65.6002 42.0362C68.0503 42.0362 70.0365 40.0499 70.0365 37.5998C70.0365 35.1497 68.0503 33.1635 65.6002 33.1635C63.15 33.1635 61.1638 35.1497 61.1638 37.5998C61.1638 40.0499 63.15 42.0362 65.6002 42.0362ZM40.4366 69.6001C40.4366 72.0502 38.4504 74.0364 36.0002 74.0364C33.5501 74.0364 31.5639 72.0502 31.5639 69.6001C31.5639 67.1499 33.5501 65.1637 36.0002 65.1637C38.4504 65.1637 40.4366 67.1499 40.4366 69.6001Z" fill="url(#paint0_linear_449_1088)"/>
<defs>
<linearGradient id="paint0_linear_449_1088" x1="0.000335189" y1="10.6876" x2="75.2778" y2="71.9742" gradientUnits="userSpaceOnUse">
<stop stop-color="#1E74EC"/>
<stop offset="1" stop-color="#002984"/>
</linearGradient>
</defs>
</svg>
