<svg width="28" height="20" viewBox="0 0 28 20" fill="none" xmlns="http://www.w3.org/2000/svg">
<rect width="28" height="20" rx="2" fill="#EEEFF1"/>
<mask id="mask0_928_2590" style="mask-type:alpha" maskUnits="userSpaceOnUse" x="0" y="0" width="28" height="20">
<rect width="28" height="20" rx="2" fill="white"/>
</mask>
<g mask="url(#mask0_928_2590)">
<path fill-rule="evenodd" clip-rule="evenodd" d="M28 0H0V1.33333H28V0ZM28 2.66667H0V4H28V2.66667ZM0 5.33333H28V6.66667H0V5.33333ZM28 8H0V9.33333H28V8ZM0 10.6667H28V12H0V10.6667ZM28 13.3333H0V14.6667H28V13.3333ZM0 16H28V17.3333H0V16ZM28 18.6667H0V20H28V18.6667Z" fill="#D02F44"/>
<rect width="12" height="9.33333" fill="#46467F"/>
<g filter="url(#filter0_d_928_2590)">
<path fill-rule="evenodd" clip-rule="evenodd" d="M2.66665 2.00016C2.66665 2.36835 2.36817 2.66683 1.99998 2.66683C1.63179 2.66683 1.33331 2.36835 1.33331 2.00016C1.33331 1.63197 1.63179 1.3335 1.99998 1.3335C2.36817 1.3335 2.66665 1.63197 2.66665 2.00016ZM5.33331 2.00016C5.33331 2.36835 5.03484 2.66683 4.66665 2.66683C4.29846 2.66683 3.99998 2.36835 3.99998 2.00016C3.99998 1.63197 4.29846 1.3335 4.66665 1.3335C5.03484 1.3335 5.33331 1.63197 5.33331 2.00016ZM7.33331 2.66683C7.7015 2.66683 7.99998 2.36835 7.99998 2.00016C7.99998 1.63197 7.7015 1.3335 7.33331 1.3335C6.96512 1.3335 6.66665 1.63197 6.66665 2.00016C6.66665 2.36835 6.96512 2.66683 7.33331 2.66683ZM10.6666 2.00016C10.6666 2.36835 10.3682 2.66683 9.99998 2.66683C9.63179 2.66683 9.33331 2.36835 9.33331 2.00016C9.33331 1.63197 9.63179 1.3335 9.99998 1.3335C10.3682 1.3335 10.6666 1.63197 10.6666 2.00016ZM3.33331 4.00016C3.7015 4.00016 3.99998 3.70169 3.99998 3.3335C3.99998 2.96531 3.7015 2.66683 3.33331 2.66683C2.96512 2.66683 2.66665 2.96531 2.66665 3.3335C2.66665 3.70169 2.96512 4.00016 3.33331 4.00016ZM6.66665 3.3335C6.66665 3.70169 6.36817 4.00016 5.99998 4.00016C5.63179 4.00016 5.33331 3.70169 5.33331 3.3335C5.33331 2.96531 5.63179 2.66683 5.99998 2.66683C6.36817 2.66683 6.66665 2.96531 6.66665 3.3335ZM8.66665 4.00016C9.03484 4.00016 9.33331 3.70169 9.33331 3.3335C9.33331 2.96531 9.03484 2.66683 8.66665 2.66683C8.29846 2.66683 7.99998 2.96531 7.99998 3.3335C7.99998 3.70169 8.29846 4.00016 8.66665 4.00016ZM10.6666 4.66683C10.6666 5.03502 10.3682 5.3335 9.99998 5.3335C9.63179 5.3335 9.33331 5.03502 9.33331 4.66683C9.33331 4.29864 9.63179 4.00016 9.99998 4.00016C10.3682 4.00016 10.6666 4.29864 10.6666 4.66683ZM7.33331 5.3335C7.7015 5.3335 7.99998 5.03502 7.99998 4.66683C7.99998 4.29864 7.7015 4.00016 7.33331 4.00016C6.96512 4.00016 6.66665 4.29864 6.66665 4.66683C6.66665 5.03502 6.96512 5.3335 7.33331 5.3335ZM5.33331 4.66683C5.33331 5.03502 5.03484 5.3335 4.66665 5.3335C4.29846 5.3335 3.99998 5.03502 3.99998 4.66683C3.99998 4.29864 4.29846 4.00016 4.66665 4.00016C5.03484 4.00016 5.33331 4.29864 5.33331 4.66683ZM1.99998 5.3335C2.36817 5.3335 2.66665 5.03502 2.66665 4.66683C2.66665 4.29864 2.36817 4.00016 1.99998 4.00016C1.63179 4.00016 1.33331 4.29864 1.33331 4.66683C1.33331 5.03502 1.63179 5.3335 1.99998 5.3335ZM3.99998 6.00016C3.99998 6.36835 3.7015 6.66683 3.33331 6.66683C2.96512 6.66683 2.66665 6.36835 2.66665 6.00016C2.66665 5.63197 2.96512 5.3335 3.33331 5.3335C3.7015 5.3335 3.99998 5.63197 3.99998 6.00016ZM5.99998 6.66683C6.36817 6.66683 6.66665 6.36835 6.66665 6.00016C6.66665 5.63197 6.36817 5.3335 5.99998 5.3335C5.63179 5.3335 5.33331 5.63197 5.33331 6.00016C5.33331 6.36835 5.63179 6.66683 5.99998 6.66683ZM9.33331 6.00016C9.33331 6.36835 9.03484 6.66683 8.66665 6.66683C8.29846 6.66683 7.99998 6.36835 7.99998 6.00016C7.99998 5.63197 8.29846 5.3335 8.66665 5.3335C9.03484 5.3335 9.33331 5.63197 9.33331 6.00016ZM9.99998 8.00016C10.3682 8.00016 10.6666 7.70169 10.6666 7.3335C10.6666 6.96531 10.3682 6.66683 9.99998 6.66683C9.63179 6.66683 9.33331 6.96531 9.33331 7.3335C9.33331 7.70169 9.63179 8.00016 9.99998 8.00016ZM7.99998 7.3335C7.99998 7.70169 7.7015 8.00016 7.33331 8.00016C6.96512 8.00016 6.66665 7.70169 6.66665 7.3335C6.66665 6.96531 6.96512 6.66683 7.33331 6.66683C7.7015 6.66683 7.99998 6.96531 7.99998 7.3335ZM4.66665 8.00016C5.03484 8.00016 5.33331 7.70169 5.33331 7.3335C5.33331 6.96531 5.03484 6.66683 4.66665 6.66683C4.29846 6.66683 3.99998 6.96531 3.99998 7.3335C3.99998 7.70169 4.29846 8.00016 4.66665 8.00016ZM2.66665 7.3335C2.66665 7.70169 2.36817 8.00016 1.99998 8.00016C1.63179 8.00016 1.33331 7.70169 1.33331 7.3335C1.33331 6.96531 1.63179 6.66683 1.99998 6.66683C2.36817 6.66683 2.66665 6.96531 2.66665 7.3335Z" fill="url(#paint0_linear_928_2590)"/>
</g>
</g>
<defs>
<filter id="filter0_d_928_2590" x="1.33331" y="1.3335" width="9.33331" height="7.6665" filterUnits="userSpaceOnUse" color-interpolation-filters="sRGB">
<feFlood flood-opacity="0" result="BackgroundImageFix"/>
<feColorMatrix in="SourceAlpha" type="matrix" values="0 0 0 0 0 0 0 0 0 0 0 0 0 0 0 0 0 0 127 0" result="hardAlpha"/>
<feOffset dy="1"/>
<feColorMatrix type="matrix" values="0 0 0 0 0 0 0 0 0 0 0 0 0 0 0 0 0 0 0.06 0"/>
<feBlend mode="normal" in2="BackgroundImageFix" result="effect1_dropShadow_928_2590"/>
<feBlend mode="normal" in="SourceGraphic" in2="effect1_dropShadow_928_2590" result="shape"/>
</filter>
<linearGradient id="paint0_linear_928_2590" x1="1.33331" y1="1.3335" x2="1.33331" y2="8.00016" gradientUnits="userSpaceOnUse">
<stop stop-color="white"/>
<stop offset="1" stop-color="#F0F0F0"/>
</linearGradient>
</defs>
</svg>
