<svg width="74" height="61" viewBox="0 0 74 61" fill="none" xmlns="http://www.w3.org/2000/svg">
<path d="M23.015 59.8857H22.0356V60.8651H23.015V59.8857ZM51.8617 59.8857V60.8651H52.7535L52.8367 59.9772L51.8617 59.8857ZM72.358 55.2585V56.2378H73.2498L73.3331 55.3499L72.358 55.2585ZM1.00037 55.2585H0.0210301V56.2378H1.00037V55.2585ZM51.9562 55.2585L50.978 55.3055L51.9562 55.2585ZM28.7421 43.9356L29.009 44.8778L28.7421 43.9356ZM35.0784 7.08804L36.0098 7.39067L35.0784 7.08804ZM28.6363 7.21336L28.0606 8.00566L28.6363 7.21336ZM33.8039 11.0107L32.8725 10.708L33.8039 11.0107ZM33.7857 10.9546L34.3613 10.1623L33.7857 10.9546ZM31.9141 17.1202L31.3385 16.3279L31.9141 17.1202ZM31.837 17.0642L32.7684 17.3668L31.837 17.0642ZM37.1225 13.3789L37.6981 12.5866L37.1225 13.3789ZM37.0635 13.3789L37.6392 14.1712L37.0635 13.3789ZM42.349 17.0642L43.2804 16.7615L42.349 17.0642ZM42.2719 17.1202L41.6962 17.9125L42.2719 17.1202ZM40.4003 10.9546L39.8247 10.1623L40.4003 10.9546ZM40.3821 11.0107L39.4507 11.3133L40.3821 11.0107ZM45.5497 7.21336L46.1254 8.00566L45.5497 7.21336ZM39.1076 7.08804L38.1762 7.39067L39.1076 7.08804ZM37.1407 1.03455L38.0721 0.731915V0.731915L37.1407 1.03455ZM37.0453 1.03455L36.1139 0.731915V0.731915L37.0453 1.03455ZM23.015 60.8651H51.8617V58.9064H23.015V60.8651ZM73.3331 55.3499C73.5925 52.5827 73.5599 48.404 72.5805 44.8745C72.0907 43.1094 71.3435 41.4299 70.2087 40.177C69.048 38.8955 67.4985 38.0837 65.5259 38.0837V40.0424C66.8934 40.0424 67.9312 40.5802 68.757 41.4918C69.6086 42.4321 70.2467 43.7892 70.6932 45.3982C71.5863 48.6168 71.6296 52.5357 71.3829 55.1671L73.3331 55.3499ZM65.5259 38.0837H51.1025V40.0424H65.5259V38.0837ZM23.015 38.0837H8.5916V40.0424H23.015V38.0837ZM8.5916 38.0837C6.43544 38.0837 4.75941 38.8513 3.50498 40.1257C2.2779 41.3723 1.50526 43.0501 1.00691 44.8119C0.0144941 48.3205 0.0210301 52.5099 0.0210301 55.2585H1.9797C1.9797 52.4543 1.98624 48.546 2.89164 45.345C3.34219 43.7521 3.99291 42.4221 4.90086 41.4997C5.78147 40.6051 6.95215 40.0424 8.5916 40.0424V38.0837ZM51.9562 56.2378H72.358V54.2791H51.9562V56.2378ZM52.8367 59.9772C52.9631 58.629 53.0187 56.9643 52.9345 55.2115L50.978 55.3055C51.0577 56.9631 51.0046 58.5352 50.8866 59.7943L52.8367 59.9772ZM52.9345 55.2115C52.8032 52.4798 52.328 49.4365 51.1795 47.0423C50.0174 44.6195 48.0731 42.711 45.0295 42.711V44.6696C47.0531 44.6696 48.4435 45.8671 49.4135 47.8894C50.3972 49.9402 50.8519 52.681 50.978 55.3055L52.9345 55.2115ZM51.1025 38.0837C49.2621 38.0837 47.7614 38.643 46.5723 39.6172C45.4001 40.5776 44.5875 41.8939 44.0172 43.3285L45.8372 44.0521C46.3292 42.8148 46.9773 41.8175 47.8136 41.1323C48.6332 40.4608 49.689 40.0424 51.1025 40.0424V38.0837ZM45.0295 42.711H44.9272V44.6696H45.0295V42.711ZM44.9272 42.711H30.6062V44.6696H44.9272V42.711ZM29.6617 43.5988C28.5807 40.647 26.5559 38.0837 23.015 38.0837V40.0424C25.3395 40.0424 26.8588 41.641 27.8225 44.2724L29.6617 43.5988ZM30.6062 42.711C29.8429 42.711 29.133 42.807 28.4753 42.9933L29.009 44.8778C29.4792 44.7447 30.0084 44.6696 30.6062 44.6696V42.711ZM28.4753 42.9933C25.9639 43.7046 24.451 45.6493 23.5454 47.8943C22.6446 50.1276 22.2875 52.7844 22.1404 55.1989L24.0954 55.318C24.2383 52.9718 24.5799 50.5657 25.3619 48.627C26.1392 46.7 27.2934 45.3637 29.009 44.8778L28.4753 42.9933ZM22.1404 55.1989C22.0354 56.9224 22.0356 58.5641 22.0356 59.8857H23.9943C23.9943 58.5591 23.9945 56.9738 24.0954 55.318L22.1404 55.1989ZM1.00037 56.2378H23.1179V54.2791H1.00037V56.2378ZM22.6721 26.7083C22.6721 31.2193 18.9804 34.891 14.4082 34.891V36.8497C20.0458 36.8497 24.6308 32.3174 24.6308 26.7083H22.6721ZM14.4082 34.891C9.83598 34.891 6.14427 31.2193 6.14427 26.7083H4.1856C4.1856 32.3174 8.77058 36.8497 14.4082 36.8497V34.891ZM6.14427 26.7083C6.14427 22.1973 9.83598 18.5257 14.4082 18.5257V16.567C8.77058 16.567 4.1856 21.0993 4.1856 26.7083H6.14427ZM14.4082 18.5257C18.9804 18.5257 22.6721 22.1973 22.6721 26.7083H24.6308C24.6308 21.0993 20.0458 16.567 14.4082 16.567V18.5257ZM45.7802 31.2893C45.7802 35.8003 42.0885 39.472 37.5163 39.472V41.4306C43.1539 41.4306 47.7389 36.8984 47.7389 31.2893H45.7802ZM37.5163 39.472C32.9441 39.472 29.2524 35.8003 29.2524 31.2893H27.2937C27.2937 36.8984 31.8787 41.4306 37.5163 41.4306V39.472ZM29.2524 31.2893C29.2524 26.7783 32.9441 23.1067 37.5163 23.1067V21.148C31.8787 21.148 27.2937 25.6803 27.2937 31.2893H29.2524ZM37.5163 23.1067C42.0885 23.1067 45.7802 26.7783 45.7802 31.2893H47.7389C47.7389 25.6803 43.1539 21.148 37.5163 21.148V23.1067ZM67.3478 26.7083C67.3478 31.2193 63.6561 34.891 59.0839 34.891V36.8497C64.7215 36.8497 69.3065 32.3174 69.3065 26.7083H67.3478ZM59.0839 34.891C54.5117 34.891 50.82 31.2193 50.82 26.7083H48.8613C48.8613 32.3174 53.4463 36.8497 59.0839 36.8497V34.891ZM50.82 26.7083C50.82 22.1973 54.5117 18.5257 59.0839 18.5257V16.567C53.4463 16.567 48.8613 21.0993 48.8613 26.7083H50.82ZM59.0839 18.5257C63.6561 18.5257 67.3478 22.1973 67.3478 26.7083H69.3065C69.3065 21.0993 64.7215 16.567 59.0839 16.567V18.5257ZM36.2093 1.33718L38.1762 7.39067L40.039 6.78541L38.0721 0.731915L36.2093 1.33718ZM39.1553 8.10201H45.5203V6.14334H39.1553V8.10201ZM44.9741 6.42106L39.8247 10.1623L40.976 11.7469L46.1254 8.00566L44.9741 6.42106ZM39.4507 11.3133L41.4176 17.3668L43.2804 16.7615L41.3135 10.708L39.4507 11.3133ZM42.8475 16.3279L37.6981 12.5866L36.5468 14.1712L41.6962 17.9125L42.8475 16.3279ZM36.4879 12.5866L31.3385 16.3279L32.4898 17.9125L37.6392 14.1712L36.4879 12.5866ZM32.7684 17.3668L34.7353 11.3133L32.8725 10.708L30.9056 16.7615L32.7684 17.3668ZM34.3613 10.1623L29.2119 6.42106L28.0606 8.00566L33.21 11.7469L34.3613 10.1623ZM28.6657 8.10201H35.0308V6.14334H28.6657V8.10201ZM36.0098 7.39067L37.9767 1.33718L36.1139 0.731915L34.147 6.78541L36.0098 7.39067ZM35.0308 8.10201C35.4768 8.10201 35.872 7.81479 36.0098 7.39067L34.147 6.78541C34.2714 6.40259 34.6282 6.14334 35.0308 6.14334V8.10201ZM29.2119 6.42106C29.9402 6.95021 29.5658 8.10201 28.6657 8.10201V6.14334C27.6686 6.14334 27.2537 7.41943 28.0606 8.00566L29.2119 6.42106ZM34.7353 11.3133C34.8731 10.8892 34.7222 10.4245 34.3613 10.1623L33.21 11.7469C32.8843 11.5103 32.7481 11.0908 32.8725 10.708L34.7353 11.3133ZM31.3385 16.3279C32.0667 15.7988 33.0466 16.5107 32.7684 17.3668L30.9056 16.7615C30.5974 17.71 31.683 18.4987 32.4898 17.9125L31.3385 16.3279ZM37.6981 12.5866C37.3373 12.3245 36.8487 12.3245 36.4879 12.5866L37.6392 14.1712C37.3135 14.4079 36.8725 14.4079 36.5468 14.1712L37.6981 12.5866ZM41.4176 17.3668C41.1394 16.5106 42.1193 15.7988 42.8475 16.3279L41.6962 17.9125C42.503 18.4986 43.5886 17.71 43.2804 16.7615L41.4176 17.3668ZM39.8247 10.1623C39.4638 10.4245 39.3129 10.8892 39.4507 11.3133L41.3135 10.708C41.4379 11.0908 41.3017 11.5103 40.976 11.7469L39.8247 10.1623ZM45.5203 8.10201C44.6201 8.10201 44.2459 6.95015 44.9741 6.42106L46.1254 8.00566C46.9322 7.41948 46.5175 6.14334 45.5203 6.14334V8.10201ZM38.1762 7.39067C38.314 7.81488 38.7093 8.10201 39.1553 8.10201V6.14334C39.5578 6.14334 39.9146 6.40251 40.039 6.78541L38.1762 7.39067ZM38.0721 0.731915C37.7639 -0.21654 36.4221 -0.216544 36.1139 0.731915L37.9767 1.33718C37.6986 2.19327 36.4874 2.19326 36.2093 1.33718L38.0721 0.731915Z" fill="url(#paint0_linear_449_2742)"/>
<defs>
<linearGradient id="paint0_linear_449_2742" x1="1.00037" y1="9.28073" x2="60.5102" y2="71.3696" gradientUnits="userSpaceOnUse">
<stop stop-color="#1E74EC"/>
<stop offset="1" stop-color="#002984"/>
</linearGradient>
</defs>
</svg>
