<svg width="70" height="53" viewBox="0 0 70 53" fill="none" xmlns="http://www.w3.org/2000/svg">
<path d="M1.00031 46.451V45.5065C0.664221 45.5065 0.353455 45.6851 0.184263 45.9755C0.0150715 46.2659 0.0129452 46.6243 0.17868 46.9167L1.00031 46.451ZM69.0003 46.451L69.8219 46.9167C69.9877 46.6243 69.9855 46.2659 69.8163 45.9755C69.6472 45.6851 69.3364 45.5065 69.0003 45.5065V46.451ZM66.0438 51.6667V52.6111C66.3839 52.6111 66.6977 52.4283 66.8654 52.1324L66.0438 51.6667ZM3.95683 51.6667L3.1352 52.1324C3.30291 52.4283 3.61674 52.6111 3.95683 52.6111V51.6667ZM4.49064 42.7255C4.49064 43.2471 4.91348 43.6699 5.43509 43.6699C5.95669 43.6699 6.37954 43.2471 6.37954 42.7255H4.49064ZM5.43509 1V0.0555524C4.91348 0.0555524 4.49064 0.478396 4.49064 1L5.43509 1ZM63.0873 1H64.0317C64.0317 0.478396 63.6089 0.0555524 63.0873 0.0555524V1ZM62.1428 42.7255C62.1428 43.2471 62.5657 43.6699 63.0873 43.6699C63.6089 43.6699 64.0317 43.2471 64.0317 42.7255H62.1428ZM1.00031 47.3954H69.0003V45.5065H1.00031V47.3954ZM68.1787 45.9852L65.2222 51.2009L66.8654 52.1324L69.8219 46.9167L68.1787 45.9852ZM66.0438 50.7222H3.95683V52.6111H66.0438V50.7222ZM4.77845 51.2009L1.82193 45.9852L0.17868 46.9167L3.1352 52.1324L4.77845 51.2009ZM11.3481 6.41504H57.1742V4.52614H11.3481V6.41504ZM57.708 6.96078V41.2353H59.5969V6.96078H57.708ZM57.1742 41.781H11.3481V43.6699H57.1742V41.781ZM10.8143 41.2353V6.96078H8.92542V41.2353H10.8143ZM11.3481 41.781C11.0605 41.781 10.8143 41.5439 10.8143 41.2353H8.92542C8.92542 42.5727 10.003 43.6699 11.3481 43.6699V41.781ZM57.708 41.2353C57.708 41.5439 57.4619 41.781 57.1742 41.781V43.6699C58.5194 43.6699 59.5969 42.5727 59.5969 41.2353H57.708ZM57.1742 6.41504C57.4619 6.41504 57.708 6.6522 57.708 6.96078H59.5969C59.5969 5.62334 58.5194 4.52614 57.1742 4.52614V6.41504ZM11.3481 4.52614C10.003 4.52614 8.92542 5.62334 8.92542 6.96078H10.8143C10.8143 6.6522 11.0605 6.41504 11.3481 6.41504V4.52614ZM6.37954 42.7255V1H4.49064V42.7255H6.37954ZM5.43509 1.94445H63.0873V0.0555524H5.43509V1.94445ZM62.1428 1V42.7255H64.0317V1H62.1428Z" fill="url(#paint0_linear_449_1472)"/>
<defs>
<linearGradient id="paint0_linear_449_1472" x1="1.0003" y1="8.125" x2="51.7326" y2="66.6382" gradientUnits="userSpaceOnUse">
<stop stop-color="#1E74EC"/>
<stop offset="1" stop-color="#002984"/>
</linearGradient>
</defs>
</svg>
