<svg width="64" height="71" viewBox="0 0 64 71" fill="none" xmlns="http://www.w3.org/2000/svg">
<path fill-rule="evenodd" clip-rule="evenodd" d="M2.75003 52.0728V69.0009H11.5706V52.0728H2.75003ZM18.7757 40.8038V69.0009H27.5963V40.8038H18.7757ZM36.404 29.5349V69.0009H45.2245V29.5349H36.404ZM52.4297 19.8757V69.0009H61.2502V19.8757H52.4297ZM51.0547 17.8757C50.7095 17.8757 50.4297 18.1556 50.4297 18.5007V70.3759C50.4297 70.7211 50.7095 71.0009 51.0547 71.0009H62.6252C62.9704 71.0009 63.2502 70.7211 63.2502 70.3759V18.5007C63.2502 18.1556 62.9704 17.8757 62.6252 17.8757H51.0547ZM34.404 28.1599C34.404 27.8147 34.6838 27.5349 35.029 27.5349H46.5995C46.9447 27.5349 47.2245 27.8147 47.2245 28.1599V70.3759C47.2245 70.7211 46.9447 71.0009 46.5995 71.0009H35.029C34.6838 71.0009 34.404 70.7211 34.404 70.3759V28.1599ZM17.4007 38.8038C17.0555 38.8038 16.7757 39.0836 16.7757 39.4288V70.3759C16.7757 70.7211 17.0555 71.0009 17.4007 71.0009H28.9713C29.3165 71.0009 29.5963 70.7211 29.5963 70.3759V39.4288C29.5963 39.0836 29.3165 38.8038 28.9713 38.8038H17.4007ZM1.37503 50.0728C1.02985 50.0728 0.750031 50.3526 0.750031 50.6978V70.3759C0.750031 70.7211 1.02985 71.0009 1.37503 71.0009H12.9456C13.2908 71.0009 13.5706 70.7211 13.5706 70.3759V50.6978C13.5706 50.3526 13.2908 50.0728 12.9456 50.0728H1.37503Z" fill="url(#paint0_linear_453_3266)"/>
<path fill-rule="evenodd" clip-rule="evenodd" d="M46.4761 0.652796C46.6683 0.135024 47.2438 -0.128923 47.7616 0.0632519L54.2231 2.46152C54.6587 2.62316 54.9255 3.06344 54.8673 3.52432L54.0596 9.91969C53.9904 10.4676 53.4901 10.8557 52.9422 10.7865C52.3943 10.7173 52.0062 10.217 52.0754 9.66909L52.623 5.33256L1.89521 36.2299C1.42353 36.5172 0.808262 36.3677 0.52097 35.8961C0.233679 35.4244 0.383156 34.8091 0.854836 34.5218L51.5925 3.61845L47.0657 1.93827C46.5479 1.74609 46.2839 1.17057 46.4761 0.652796Z" fill="url(#paint1_linear_453_3266)"/>
<defs>
<linearGradient id="paint0_linear_453_3266" x1="0.75003" y1="25.3465" x2="54.4832" y2="79.6723" gradientUnits="userSpaceOnUse">
<stop stop-color="#1E74EC"/>
<stop offset="1" stop-color="#002984"/>
</linearGradient>
<linearGradient id="paint1_linear_453_3266" x1="0.374878" y1="5.1158" x2="36.0241" y2="51.0168" gradientUnits="userSpaceOnUse">
<stop stop-color="#1E74EC"/>
<stop offset="1" stop-color="#002984"/>
</linearGradient>
</defs>
</svg>
